<svg xmlns="http://www.w3.org/2000/svg" viewBox="0 0 128 128" role="img" aria-labelledby="title">
    <title id="title">Logotipo de Mechapp</title>
    <rect width="128" height="128" fill="#000000" />
    <path
        fill="#ffffff"
        d="M50.6 8.6 54 22.8a32.7 32.7 0 0 1 20 0l3.4-14.2 12.3 4.4-3.4 14.1a32.5 32.5 0 0 1 14 14.1l14.1-3.4 4.4 12.3-14.2 3.4a32.7 32.7 0 0 1 0 20l14.2 3.4-4.4 12.3-14.1-3.4a32.5 32.5 0 0 1-14.1 14l3.4 14.2-12.3 4.4-3.4-14.2a32.7 32.7 0 0 1-20 0l-3.4 14.2-12.3-4.4 3.4-14.2a32.5 32.5 0 0 1-14-14.1l-14.2 3.4-4.4-12.3 14.2-3.4a32.7 32.7 0 0 1 0-20l-14.2-3.4 4.4-12.3 14.2 3.4a32.5 32.5 0 0 1 14-14.1L38.3 13z"
    />
    <circle cx="64" cy="64" r="26" fill="#000000" />
    <path
        fill="#f97316"
        d="M56.2 79.6 42.8 66.2a6 6 0 0 1 8.4-8.4l8.5 8.5 24.7-24.7a6 6 0 0 1 8.4 8.4L64.6 81.3a6 6 0 0 1-8.4 0z"
    />
</svg>
